<?xml version="1.0" encoding="UTF-8"?>
<!--Generator: Apple Native CoreSVG 175-->
<!DOCTYPE svg
PUBLIC "-//W3C//DTD SVG 1.1//EN"
       "http://www.w3.org/Graphics/SVG/1.1/DTD/svg11.dtd">
<svg version="1.1" xmlns="http://www.w3.org/2000/svg" xmlns:xlink="http://www.w3.org/1999/xlink" width="3300" height="2200">
 <!--glyph: "uni1001AE.medium", point size: 100.0, font version: "17.3d3e1", template writer version: "65.1"-->
 <style>.multicolor-0:systemYellowColor {fill:#FFCC00;opacity:1.0}

.SFSymbolsPreviewFFCC00 {fill:#FFCC00;opacity:1.0}
</style>
 <g id="Notes">
  <rect height="2200" id="artboard" style="fill:white;opacity:1" width="3300" x="0" y="0"/>
  <line style="fill:none;stroke:black;opacity:1;stroke-width:0.5;" x1="263" x2="3036" y1="292" y2="292"/>
  <text style="stroke:none;fill:black;font-family:sans-serif;font-size:13;font-weight:bold;" transform="matrix(1 0 0 1 263 322)">Weight/Scale Variations</text>
  <text style="stroke:none;fill:black;font-family:sans-serif;font-size:13;text-anchor:middle;" transform="matrix(1 0 0 1 559.711 322)">Ultralight</text>
  <text style="stroke:none;fill:black;font-family:sans-serif;font-size:13;text-anchor:middle;" transform="matrix(1 0 0 1 856.422 322)">Thin</text>
  <text style="stroke:none;fill:black;font-family:sans-serif;font-size:13;text-anchor:middle;" transform="matrix(1 0 0 1 1153.13 322)">Light</text>
  <text style="stroke:none;fill:black;font-family:sans-serif;font-size:13;text-anchor:middle;" transform="matrix(1 0 0 1 1449.84 322)">Regular</text>
  <text style="stroke:none;fill:black;font-family:sans-serif;font-size:13;text-anchor:middle;" transform="matrix(1 0 0 1 1746.56 322)">Medium</text>
  <text style="stroke:none;fill:black;font-family:sans-serif;font-size:13;text-anchor:middle;" transform="matrix(1 0 0 1 2043.27 322)">Semibold</text>
  <text style="stroke:none;fill:black;font-family:sans-serif;font-size:13;text-anchor:middle;" transform="matrix(1 0 0 1 2339.98 322)">Bold</text>
  <text style="stroke:none;fill:black;font-family:sans-serif;font-size:13;text-anchor:middle;" transform="matrix(1 0 0 1 2636.69 322)">Heavy</text>
  <text style="stroke:none;fill:black;font-family:sans-serif;font-size:13;text-anchor:middle;" transform="matrix(1 0 0 1 2933.4 322)">Black</text>
  <line style="fill:none;stroke:black;opacity:1;stroke-width:0.5;" x1="263" x2="3036" y1="1903" y2="1903"/>
  <g transform="matrix(1 0 0 1 263 1933)">
   <path d="M9.24805 0.830078Q10.8691 0.830078 12.2949 0.214844Q13.7207-0.400391 14.8096-1.49414Q15.8984-2.58789 16.5186-4.01367Q17.1387-5.43945 17.1387-7.05078Q17.1387-8.66211 16.5186-10.0879Q15.8984-11.5137 14.8047-12.6074Q13.7109-13.7012 12.2852-14.3164Q10.8594-14.9316 9.23828-14.9316Q7.62695-14.9316 6.20117-14.3164Q4.77539-13.7012 3.69141-12.6074Q2.60742-11.5137 1.9873-10.0879Q1.36719-8.66211 1.36719-7.05078Q1.36719-5.43945 1.9873-4.01367Q2.60742-2.58789 3.69629-1.49414Q4.78516-0.400391 6.21094 0.214844Q7.63672 0.830078 9.24805 0.830078ZM9.24805-0.654297Q7.91992-0.654297 6.7627-1.14746Q5.60547-1.64062 4.73145-2.51953Q3.85742-3.39844 3.36426-4.56055Q2.87109-5.72266 2.87109-7.05078Q2.87109-8.37891 3.35938-9.54102Q3.84766-10.7031 4.72168-11.582Q5.5957-12.4609 6.75293-12.9541Q7.91016-13.4473 9.23828-13.4473Q10.5762-13.4473 11.7334-12.9541Q12.8906-12.4609 13.7695-11.582Q14.6484-10.7031 15.1465-9.54102Q15.6445-8.37891 15.6445-7.05078Q15.6445-5.72266 15.1514-4.56055Q14.6582-3.39844 13.7842-2.51953Q12.9102-1.64062 11.748-1.14746Q10.5859-0.654297 9.24805-0.654297ZM5.6543-7.05078Q5.6543-6.72852 5.85938-6.52832Q6.06445-6.32812 6.40625-6.32812L8.51562-6.32812L8.51562-4.20898Q8.51562-3.88672 8.71094-3.67676Q8.90625-3.4668 9.23828-3.4668Q9.56055-3.4668 9.77051-3.67676Q9.98047-3.88672 9.98047-4.20898L9.98047-6.32812L12.0898-6.32812Q12.4219-6.32812 12.627-6.52832Q12.832-6.72852 12.832-7.05078Q12.832-7.38281 12.627-7.58789Q12.4219-7.79297 12.0898-7.79297L9.98047-7.79297L9.98047-9.90234Q9.98047-10.2344 9.77051-10.4443Q9.56055-10.6543 9.23828-10.6543Q8.90625-10.6543 8.71094-10.4443Q8.51562-10.2344 8.51562-9.90234L8.51562-7.79297L6.40625-7.79297Q6.06445-7.79297 5.85938-7.58789Q5.6543-7.38281 5.6543-7.05078Z"/>
  </g>
  <g transform="matrix(1 0 0 1 281.867 1933)">
   <path d="M11.709 2.91016Q13.75 2.91016 15.5518 2.12891Q17.3535 1.34766 18.7305-0.0292969Q20.1074-1.40625 20.8887-3.20801Q21.6699-5.00977 21.6699-7.05078Q21.6699-9.0918 20.8887-10.8936Q20.1074-12.6953 18.7305-14.0723Q17.3535-15.4492 15.5469-16.2305Q13.7402-17.0117 11.6992-17.0117Q9.6582-17.0117 7.85645-16.2305Q6.05469-15.4492 4.68262-14.0723Q3.31055-12.6953 2.5293-10.8936Q1.74805-9.0918 1.74805-7.05078Q1.74805-5.00977 2.5293-3.20801Q3.31055-1.40625 4.6875-0.0292969Q6.06445 1.34766 7.86621 2.12891Q9.66797 2.91016 11.709 2.91016ZM11.709 1.25Q9.98047 1.25 8.47656 0.605469Q6.97266-0.0390625 5.83496-1.17676Q4.69727-2.31445 4.05762-3.81836Q3.41797-5.32227 3.41797-7.05078Q3.41797-8.7793 4.05762-10.2832Q4.69727-11.7871 5.83008-12.9297Q6.96289-14.0723 8.4668-14.7119Q9.9707-15.3516 11.6992-15.3516Q13.4277-15.3516 14.9316-14.7119Q16.4355-14.0723 17.5781-12.9297Q18.7207-11.7871 19.3652-10.2832Q20.0098-8.7793 20.0098-7.05078Q20.0098-5.32227 19.3701-3.81836Q18.7305-2.31445 17.5928-1.17676Q16.4551-0.0390625 14.9463 0.605469Q13.4375 1.25 11.709 1.25ZM7.17773-7.05078Q7.17773-6.69922 7.41211-6.47461Q7.64648-6.25 8.01758-6.25L10.8887-6.25L10.8887-3.36914Q10.8887-2.99805 11.1133-2.76855Q11.3379-2.53906 11.6895-2.53906Q12.0605-2.53906 12.29-2.76855Q12.5195-2.99805 12.5195-3.36914L12.5195-6.25L15.4004-6.25Q15.7715-6.25 16.001-6.47461Q16.2305-6.69922 16.2305-7.05078Q16.2305-7.42188 16.001-7.65137Q15.7715-7.88086 15.4004-7.88086L12.5195-7.88086L12.5195-10.752Q12.5195-11.1328 12.29-11.3623Q12.0605-11.5918 11.6895-11.5918Q11.3379-11.5918 11.1133-11.3574Q10.8887-11.123 10.8887-10.752L10.8887-7.88086L8.01758-7.88086Q7.63672-7.88086 7.40723-7.65137Q7.17773-7.42188 7.17773-7.05078Z"/>
  </g>
  <g transform="matrix(1 0 0 1 305.646 1933)">
   <path d="M14.9707 5.66406Q17.0605 5.66406 18.96 5.01465Q20.8594 4.36523 22.4512 3.19336Q24.043 2.02148 25.2197 0.429688Q26.3965-1.16211 27.0459-3.06641Q27.6953-4.9707 27.6953-7.05078Q27.6953-9.14062 27.0459-11.04Q26.3965-12.9395 25.2197-14.5312Q24.043-16.123 22.4512-17.2998Q20.8594-18.4766 18.9551-19.126Q17.0508-19.7754 14.9609-19.7754Q12.8711-19.7754 10.9717-19.126Q9.07227-18.4766 7.48535-17.2998Q5.89844-16.123 4.72168-14.5312Q3.54492-12.9395 2.90039-11.04Q2.25586-9.14062 2.25586-7.05078Q2.25586-4.9707 2.90527-3.06641Q3.55469-1.16211 4.72656 0.429688Q5.89844 2.02148 7.49023 3.19336Q9.08203 4.36523 10.9814 5.01465Q12.8809 5.66406 14.9707 5.66406ZM14.9707 3.84766Q13.1641 3.84766 11.5283 3.2959Q9.89258 2.74414 8.53516 1.74805Q7.17773 0.751953 6.17676-0.610352Q5.17578-1.97266 4.62891-3.6084Q4.08203-5.24414 4.08203-7.05078Q4.08203-8.86719 4.62891-10.5029Q5.17578-12.1387 6.17188-13.501Q7.16797-14.8633 8.52539-15.8594Q9.88281-16.8555 11.5186-17.4023Q13.1543-17.9492 14.9609-17.9492Q16.7773-17.9492 18.4131-17.4023Q20.0488-16.8555 21.4111-15.8594Q22.7734-14.8633 23.7695-13.501Q24.7656-12.1387 25.3174-10.5029Q25.8691-8.86719 25.8691-7.05078Q25.8789-5.24414 25.332-3.6084Q24.7852-1.97266 23.7842-0.610352Q22.7832 0.751953 21.4209 1.74805Q20.0586 2.74414 18.4229 3.2959Q16.7871 3.84766 14.9707 3.84766ZM9.19922-7.05078Q9.19922-6.66992 9.45801-6.4209Q9.7168-6.17188 10.1172-6.17188L14.0625-6.17188L14.0625-2.2168Q14.0625-1.81641 14.3115-1.55762Q14.5605-1.29883 14.9512-1.29883Q15.3516-1.29883 15.6104-1.55273Q15.8691-1.80664 15.8691-2.2168L15.8691-6.17188L19.8242-6.17188Q20.2246-6.17188 20.4785-6.4209Q20.7324-6.66992 20.7324-7.05078Q20.7324-7.46094 20.4785-7.71484Q20.2246-7.96875 19.8242-7.96875L15.8691-7.96875L15.8691-11.9141Q15.8691-12.3242 15.6104-12.583Q15.3516-12.8418 14.9512-12.8418Q14.5605-12.8418 14.3115-12.583Q14.0625-12.3242 14.0625-11.9141L14.0625-7.96875L10.1172-7.96875Q9.70703-7.96875 9.45312-7.71484Q9.19922-7.46094 9.19922-7.05078Z"/>
  </g>
  <text style="stroke:none;fill:black;font-family:sans-serif;font-size:13;font-weight:bold;" transform="matrix(1 0 0 1 263 1953)">Design Variations</text>
  <text style="stroke:none;fill:black;font-family:sans-serif;font-size:13;" transform="matrix(1 0 0 1 263 1971)">Symbols are supported in up to nine weights and three scales.</text>
  <text style="stroke:none;fill:black;font-family:sans-serif;font-size:13;" transform="matrix(1 0 0 1 263 1989)">For optimal layout with text and other symbols, vertically align</text>
  <text style="stroke:none;fill:black;font-family:sans-serif;font-size:13;" transform="matrix(1 0 0 1 263 2007)">symbols with the adjacent text.</text>
  <line style="fill:none;stroke:#00AEEF;stroke-width:0.5;opacity:1.0;" x1="776" x2="776" y1="1919" y2="1933"/>
  <g transform="matrix(1 0 0 1 776 1933)">
   <path d="M3.31055 0.15625Q3.70117 0.15625 3.91602-0.00976562Q4.13086-0.175781 4.26758-0.585938L5.52734-4.0332L11.2891-4.0332L12.5488-0.585938Q12.6855-0.175781 12.9004-0.00976562Q13.1152 0.15625 13.4961 0.15625Q13.8867 0.15625 14.1162-0.0585938Q14.3457-0.273438 14.3457-0.644531Q14.3457-0.869141 14.2383-1.17188L9.6582-13.3691Q9.48242-13.8184 9.17969-14.043Q8.87695-14.2676 8.4082-14.2676Q7.5-14.2676 7.17773-13.3789L2.59766-1.16211Q2.49023-0.859375 2.49023-0.634766Q2.49023-0.263672 2.70996-0.0537109Q2.92969 0.15625 3.31055 0.15625ZM6.00586-5.51758L8.37891-12.0898L8.42773-12.0898L10.8008-5.51758Z"/>
  </g>
  <line style="fill:none;stroke:#00AEEF;stroke-width:0.5;opacity:1.0;" x1="793.197" x2="793.197" y1="1919" y2="1933"/>
  <text style="stroke:none;fill:black;font-family:sans-serif;font-size:13;font-weight:bold;" transform="matrix(1 0 0 1 776 1953)">Margins</text>
  <text style="stroke:none;fill:black;font-family:sans-serif;font-size:13;" transform="matrix(1 0 0 1 776 1971)">Leading and trailing margins on the left and right side of each symbol</text>
  <text style="stroke:none;fill:black;font-family:sans-serif;font-size:13;" transform="matrix(1 0 0 1 776 1989)">can be adjusted by modifying the x-location of the margin guidelines.</text>
  <text style="stroke:none;fill:black;font-family:sans-serif;font-size:13;" transform="matrix(1 0 0 1 776 2007)">Modifications are automatically applied proportionally to all</text>
  <text style="stroke:none;fill:black;font-family:sans-serif;font-size:13;" transform="matrix(1 0 0 1 776 2025)">scales and weights.</text>
  <g transform="matrix(1 0 0 1 1289 1933)">
   <path d="M2.8418 1.86523L4.54102 3.57422Q5.18555 4.22852 5.90332 4.17969Q6.62109 4.13086 7.31445 3.35938L18.0078-8.42773L17.041-9.4043L6.42578 2.27539Q6.16211 2.57812 5.89355 2.61719Q5.625 2.65625 5.27344 2.30469L4.10156 1.14258Q3.75 0.791016 3.79395 0.522461Q3.83789 0.253906 4.14062-0.0195312L15.6152-10.8203L14.6387-11.7871L3.04688-0.898438Q2.30469-0.214844 2.25098 0.498047Q2.19727 1.21094 2.8418 1.86523ZM9.25781-16.3281Q8.94531-16.0254 8.90625-15.6348Q8.86719-15.2441 9.04297-14.9512Q9.21875-14.6777 9.55566-14.541Q9.89258-14.4043 10.3809-14.5215Q11.4746-14.7754 12.5977-14.7314Q13.7207-14.6875 14.7949-13.9844L14.209-12.5293Q13.9551-11.9043 14.0674-11.4404Q14.1797-10.9766 14.5801-10.5664L16.875-8.25195Q17.2363-7.88086 17.5781-7.82227Q17.9199-7.76367 18.3398-7.8418L19.4043-8.03711L20.0684-7.36328L20.0293-6.80664Q20-6.43555 20.1221-6.12305Q20.2441-5.81055 20.6055-5.44922L21.3672-4.70703Q21.7285-4.3457 22.1533-4.33105Q22.5781-4.31641 22.9297-4.66797L25.8398-7.58789Q26.1914-7.93945 26.1816-8.35449Q26.1719-8.76953 25.8105-9.13086L25.0391-9.89258Q24.6875-10.2539 24.3799-10.3857Q24.0723-10.5176 23.7109-10.4883L23.1348-10.4395L22.4902-11.0742L22.7344-12.1973Q22.832-12.6172 22.6953-12.9834Q22.5586-13.3496 22.1191-13.7891L19.9219-15.9766Q18.6719-17.2168 17.2607-17.8369Q15.8496-18.457 14.4189-18.4814Q12.9883-18.5059 11.665-17.959Q10.3418-17.4121 9.25781-16.3281ZM10.752-15.957Q11.6602-16.6211 12.7002-16.9043Q13.7402-17.1875 14.8047-17.085Q15.8691-16.9824 16.8701-16.5137Q17.8711-16.0449 18.7012-15.2051L21.1328-12.793Q21.3086-12.6172 21.3525-12.4512Q21.3965-12.2852 21.3379-12.0312L21.0156-10.5469L22.5195-9.0625L23.5059-9.12109Q23.6914-9.13086 23.7891-9.09668Q23.8867-9.0625 24.0332-8.91602L24.6094-8.33984L22.168-5.89844L21.5918-6.47461Q21.4453-6.62109 21.4062-6.71875Q21.3672-6.81641 21.377-7.01172L21.4453-7.98828L19.9512-9.47266L18.4277-9.21875Q18.1836-9.16992 18.042-9.2041Q17.9004-9.23828 17.7148-9.41406L15.7129-11.416Q15.5176-11.5918 15.4932-11.7529Q15.4688-11.9141 15.5859-12.1875L16.4648-14.2773Q15.293-15.3711 13.8281-15.791Q12.3633-16.2109 10.8398-15.7617Q10.7227-15.7324 10.6885-15.8057Q10.6543-15.8789 10.752-15.957Z"/>
  </g>
  <text style="stroke:none;fill:black;font-family:sans-serif;font-size:13;font-weight:bold;" transform="matrix(1 0 0 1 1289 1953)">Exporting</text>
  <text style="stroke:none;fill:black;font-family:sans-serif;font-size:13;" transform="matrix(1 0 0 1 1289 1971)">Symbols should be outlined when exporting to ensure the</text>
  <text style="stroke:none;fill:black;font-family:sans-serif;font-size:13;" transform="matrix(1 0 0 1 1289 1989)">design is preserved when submitting to Xcode.</text>
  <text id="template-version" style="stroke:none;fill:black;font-family:sans-serif;font-size:13;text-anchor:end;" transform="matrix(1 0 0 1 3036 1933)">Template v.3.0</text>
  <text style="stroke:none;fill:black;font-family:sans-serif;font-size:13;text-anchor:end;" transform="matrix(1 0 0 1 3036 1951)">Requires Xcode 13 or greater</text>
  <text id="descriptive-name" style="stroke:none;fill:black;font-family:sans-serif;font-size:13;text-anchor:end;" transform="matrix(1 0 0 1 3036 1969)">Generated from sun.max.fill</text>
  <text style="stroke:none;fill:black;font-family:sans-serif;font-size:13;text-anchor:end;" transform="matrix(1 0 0 1 3036 1987)">Typeset at 100 points</text>
  <text style="stroke:none;fill:black;font-family:sans-serif;font-size:13;" transform="matrix(1 0 0 1 263 726)">Small</text>
  <text style="stroke:none;fill:black;font-family:sans-serif;font-size:13;" transform="matrix(1 0 0 1 263 1156)">Medium</text>
  <text style="stroke:none;fill:black;font-family:sans-serif;font-size:13;" transform="matrix(1 0 0 1 263 1586)">Large</text>
 </g>
 <g id="Guides">
  <g id="H-reference" style="fill:#27AAE1;stroke:none;" transform="matrix(1 0 0 1 339 696)">
   <path d="M0.993347 0L3.6377 0L29.3282-67.1326L30.0301-67.1326L30.0301-70.459L28.1227-70.459ZM11.6882-24.4797L46.9818-24.4797L46.2311-26.7288L12.4382-26.7288ZM55.1193 0L57.7637 0L30.6381-70.459L29.4327-70.459L29.4327-67.1326Z"/>
  </g>
  <line id="Baseline-S" style="fill:none;stroke:#27AAE1;opacity:1;stroke-width:0.5;" x1="263" x2="3036" y1="696" y2="696"/>
  <line id="Capline-S" style="fill:none;stroke:#27AAE1;opacity:1;stroke-width:0.5;" x1="263" x2="3036" y1="625.541" y2="625.541"/>
  <g id="H-reference" style="fill:#27AAE1;stroke:none;" transform="matrix(1 0 0 1 339 1126)">
   <path d="M0.993347 0L3.6377 0L29.3282-67.1326L30.0301-67.1326L30.0301-70.459L28.1227-70.459ZM11.6882-24.4797L46.9818-24.4797L46.2311-26.7288L12.4382-26.7288ZM55.1193 0L57.7637 0L30.6381-70.459L29.4327-70.459L29.4327-67.1326Z"/>
  </g>
  <line id="Baseline-M" style="fill:none;stroke:#27AAE1;opacity:1;stroke-width:0.5;" x1="263" x2="3036" y1="1126" y2="1126"/>
  <line id="Capline-M" style="fill:none;stroke:#27AAE1;opacity:1;stroke-width:0.5;" x1="263" x2="3036" y1="1055.54" y2="1055.54"/>
  <g id="H-reference" style="fill:#27AAE1;stroke:none;" transform="matrix(1 0 0 1 339 1556)">
   <path d="M0.993347 0L3.6377 0L29.3282-67.1326L30.0301-67.1326L30.0301-70.459L28.1227-70.459ZM11.6882-24.4797L46.9818-24.4797L46.2311-26.7288L12.4382-26.7288ZM55.1193 0L57.7637 0L30.6381-70.459L29.4327-70.459L29.4327-67.1326Z"/>
  </g>
  <line id="Baseline-L" style="fill:none;stroke:#27AAE1;opacity:1;stroke-width:0.5;" x1="263" x2="3036" y1="1556" y2="1556"/>
  <line id="Capline-L" style="fill:none;stroke:#27AAE1;opacity:1;stroke-width:0.5;" x1="263" x2="3036" y1="1485.54" y2="1485.54"/>
  <line id="left-margin-Ultralight-S" style="fill:none;stroke:#00AEEF;stroke-width:0.5;opacity:1.0;" x1="512.295" x2="512.295" y1="600.785" y2="720.121"/>
  <line id="right-margin-Ultralight-S" style="fill:none;stroke:#00AEEF;stroke-width:0.5;opacity:1.0;" x1="607.127" x2="607.127" y1="600.785" y2="720.121"/>
  <line id="left-margin-Regular-S" style="fill:none;stroke:#00AEEF;stroke-width:0.5;opacity:1.0;" x1="1401.41" x2="1401.41" y1="600.785" y2="720.121"/>
  <line id="right-margin-Regular-S" style="fill:none;stroke:#00AEEF;stroke-width:0.5;opacity:1.0;" x1="1498.28" x2="1498.28" y1="600.785" y2="720.121"/>
  <line id="left-margin-Black-S" style="fill:none;stroke:#00AEEF;stroke-width:0.5;opacity:1.0;" x1="2878.15" x2="2878.15" y1="600.785" y2="720.121"/>
  <line id="right-margin-Black-S" style="fill:none;stroke:#00AEEF;stroke-width:0.5;opacity:1.0;" x1="2988.65" x2="2988.65" y1="600.785" y2="720.121"/>
 </g>
 <g id="Symbols">
  <g id="Black-S" transform="matrix(1 0 0 1 2878.15 696)">
   <path class="multicolor-0:systemYellowColor SFSymbolsPreviewFFCC00" d="M55.2246-58.3008Q48.9258-58.3008 43.6768-55.1758Q38.4277-52.0508 35.3027-46.8262Q32.1777-41.6016 32.1777-35.2539Q32.1777-28.9551 35.3027-23.7061Q38.4277-18.457 43.6768-15.332Q48.9258-12.207 55.2246-12.207Q61.5723-12.207 66.7969-15.332Q72.0215-18.457 75.1465-23.7061Q78.2715-28.9551 78.2715-35.2539Q78.2715-41.6016 75.1465-46.8262Q72.0215-52.0508 66.7969-55.1758Q61.5723-58.3008 55.2246-58.3008ZM75.7324-64.502Q73.9746-62.7441 74.0234-60.083Q74.0723-57.4219 75.8789-55.5664Q77.6367-53.8086 80.2979-53.8574Q82.959-53.9062 84.7656-55.7129L89.4043-60.4004Q91.1621-62.1582 91.1377-64.8438Q91.1133-67.5293 89.2578-69.3359Q87.5-71.0938 84.8389-71.0449Q82.1777-70.9961 80.3711-69.1895ZM84.668-14.8926Q82.9102-16.6504 80.249-16.626Q77.5879-16.6016 75.7324-14.7461Q73.9746-12.9883 74.0234-10.3516Q74.0723-7.71484 75.8789-5.85938L80.5664-1.2207Q82.3242 0.537109 85.0098 0.488281Q87.6953 0.439453 89.502-1.36719Q91.2598-3.125 91.2354-5.78613Q91.2109-8.44727 89.3555-10.2539ZM61.5234 0.0976562Q61.5234-2.49023 59.668-4.3457Q57.8125-6.20117 55.2246-6.20117Q52.6855-6.20117 50.8057-4.3457Q48.9258-2.49023 48.9258 0.0976562L48.9258 6.68945Q48.9258 9.22852 50.8057 11.1328Q52.6855 13.0371 55.2246 13.0371Q57.8125 13.0371 59.668 11.1328Q61.5234 9.22852 61.5234 6.68945ZM61.5234-77.1973Q61.5234-79.7852 59.668-81.665Q57.8125-83.5449 55.2246-83.5449Q52.6855-83.5449 50.8057-81.665Q48.9258-79.7852 48.9258-77.1973L48.9258-70.6055Q48.9258-68.0664 50.8057-66.1865Q52.6855-64.3066 55.2246-64.3066Q57.8125-64.3066 59.668-66.1865Q61.5234-68.0664 61.5234-70.6055ZM97.3145-28.9551Q99.9023-28.9551 101.782-30.835Q103.662-32.7148 103.662-35.2539Q103.662-37.8418 101.782-39.6973Q99.9023-41.5527 97.3145-41.5527L90.7227-41.5527Q88.1836-41.5527 86.3037-39.6973Q84.4238-37.8418 84.4238-35.2539Q84.4238-32.7148 86.3037-30.835Q88.1836-28.9551 90.7227-28.9551ZM25.6836-55.7129Q27.4902-53.9062 30.1514-53.8574Q32.8125-53.8086 34.5703-55.5664Q36.4258-57.4219 36.4502-60.083Q36.4746-62.7441 34.7168-64.502L30.0781-69.1895Q28.2715-70.9961 25.6104-71.0449Q22.9492-71.0938 21.1914-69.3359Q19.3848-67.5293 19.3359-64.8438Q19.2871-62.1582 21.0449-60.4004ZM13.1348-41.5527Q10.5957-41.5527 8.71582-39.6973Q6.83594-37.8418 6.83594-35.2539Q6.83594-32.7148 8.71582-30.835Q10.5957-28.9551 13.1348-28.9551L19.7266-28.9551Q22.3145-28.9551 24.1943-30.835Q26.0742-32.7148 26.0742-35.2539Q26.0742-37.8418 24.1943-39.6973Q22.3145-41.5527 19.7266-41.5527ZM21.0938-10.2539Q19.2871-8.44727 19.2383-5.78613Q19.1895-3.125 20.9473-1.36719Q22.8027 0.439453 25.4639 0.488281Q28.125 0.537109 29.8828-1.2207L34.5703-5.85938Q36.4258-7.71484 36.4502-10.3516Q36.4746-12.9883 34.7168-14.7461Q32.9102-16.6016 30.2246-16.626Q27.5391-16.6504 25.7812-14.8926Z"/>
  </g>
  <g id="Regular-S" transform="matrix(1 0 0 1 1401.41 696)">
   <path class="multicolor-0:systemYellowColor SFSymbolsPreviewFFCC00" d="M48.4375-55.1758Q42.9688-55.1758 38.4521-52.4658Q33.9355-49.7559 31.2256-45.2393Q28.5156-40.7227 28.5156-35.2539Q28.5156-29.7852 31.2256-25.2686Q33.9355-20.752 38.4521-18.042Q42.9688-15.332 48.4375-15.332Q53.8574-15.332 58.374-18.042Q62.8906-20.752 65.6006-25.2686Q68.3105-29.7852 68.3105-35.2539Q68.3105-40.7227 65.6006-45.2393Q62.8906-49.7559 58.374-52.4658Q53.8574-55.1758 48.4375-55.1758ZM66.9434-59.1309Q65.8691-58.0566 65.8691-56.4697Q65.8691-54.8828 66.9434-53.7598Q68.0664-52.6855 69.6533-52.6611Q71.2402-52.6367 72.3633-53.7598L77.9297-59.3262Q79.0039-60.4492 79.0039-62.0605Q79.0039-63.6719 77.9297-64.7461Q76.8066-65.8203 75.2197-65.8203Q73.6328-65.8203 72.5586-64.7461ZM72.3145-16.6992Q71.2402-17.7734 69.6533-17.7734Q68.0664-17.7734 66.9434-16.6992Q65.8691-15.5762 65.8691-13.9893Q65.8691-12.4023 66.9434-11.3281L72.5586-5.71289Q73.6328-4.63867 75.2197-4.66309Q76.8066-4.6875 77.9297-5.76172Q79.0039-6.83594 79.0039-8.42285Q79.0039-10.0098 77.9297-11.1328ZM52.2461-5.17578Q52.2461-6.68945 51.123-7.83691Q50-8.98438 48.4375-8.98438Q46.875-8.98438 45.752-7.83691Q44.6289-6.68945 44.6289-5.17578L44.6289 2.68555Q44.6289 4.19922 45.752 5.34668Q46.875 6.49414 48.4375 6.49414Q50 6.49414 51.123 5.34668Q52.2461 4.19922 52.2461 2.68555ZM52.2461-73.1934Q52.2461-74.707 51.123-75.8545Q50-77.002 48.4375-77.002Q46.875-77.002 45.752-75.8545Q44.6289-74.707 44.6289-73.1934L44.6289-65.332Q44.6289-63.8184 45.752-62.6709Q46.875-61.5234 48.4375-61.5234Q50-61.5234 51.123-62.6709Q52.2461-63.8184 52.2461-65.332ZM86.2305-31.4453Q87.7441-31.4453 88.8916-32.5684Q90.0391-33.6914 90.0391-35.2539Q90.0391-36.8164 88.8916-37.9395Q87.7441-39.0625 86.2305-39.0625L78.418-39.0625Q76.8555-39.0625 75.7324-37.9395Q74.6094-36.8164 74.6094-35.2539Q74.6094-33.6914 75.7324-32.5684Q76.8555-31.4453 78.418-31.4453ZM24.5117-53.7598Q25.5859-52.6855 27.1729-52.6855Q28.7598-52.6855 29.834-53.7598Q30.957-54.834 30.957-56.4453Q30.957-58.0566 29.8828-59.1309L24.3164-64.7461Q23.291-65.8203 21.6797-65.8203Q20.0684-65.8203 18.9941-64.7461Q17.8711-63.6719 17.8711-62.0605Q17.8711-60.4492 18.9453-59.375ZM10.6445-39.0625Q9.08203-39.0625 7.95898-37.9395Q6.83594-36.8164 6.83594-35.2539Q6.83594-33.6914 7.95898-32.5684Q9.08203-31.4453 10.6445-31.4453L18.4082-31.4453Q19.9707-31.4453 21.0938-32.5684Q22.2168-33.6914 22.2168-35.2539Q22.2168-36.8164 21.0938-37.9395Q19.9707-39.0625 18.4082-39.0625ZM18.9453-11.1816Q17.8223-10.0586 17.8223-8.47168Q17.8223-6.88477 18.8965-5.81055Q19.9707-4.73633 21.582-4.71191Q23.1934-4.6875 24.2676-5.76172L29.834-11.3281Q30.957-12.4023 30.957-13.9893Q30.957-15.5762 29.8828-16.6992Q28.8086-17.7734 27.1973-17.7734Q25.5859-17.7734 24.5117-16.6992Z"/>
  </g>
  <g id="Ultralight-S" transform="matrix(1 0 0 1 512.295 696)">
   <path class="multicolor-0:systemYellowColor SFSymbolsPreviewFFCC00" d="M47.3022-52.951Q42.469-52.951 38.4521-50.536Q34.4353-48.1209 32.0431-44.104Q29.6509-40.0871 29.6509-35.2539Q29.6509-30.4207 32.0431-26.4038Q34.4353-22.3869 38.4521-19.9718Q42.469-17.5568 47.3022-17.5568Q52.1774-17.5568 56.1943-19.9718Q60.2112-22.3869 62.6034-26.4038Q64.9956-30.4207 64.9956-35.2539Q64.9956-40.0871 62.6034-44.104Q60.2112-48.1209 56.1943-50.536Q52.1774-52.951 47.3022-52.951ZM67.942-57.5417Q67.5949-57.1938 67.5949-56.6742Q67.5949-56.1546 67.942-55.8029Q68.3388-55.4558 68.8358-55.4539Q69.3329-55.452 69.7296-55.8029L76.0681-62.1414Q76.461-62.5381 76.461-63.0367Q76.461-63.5353 76.0681-63.929Q75.7172-64.2761 75.1972-64.2761Q74.6773-64.2761 74.3294-63.929ZM69.7258-14.7011Q69.3329-15.049 68.8358-15.049Q68.3388-15.049 67.942-14.7011Q67.5949-14.3501 67.5949-13.8302Q67.5949-13.3102 67.942-12.9631L74.3294-6.57578Q74.6773-6.22787 75.1972-6.22978Q75.7172-6.23169 76.0681-6.57883Q76.461-6.9725 76.461-7.46956Q76.461-7.96661 76.0681-8.36258ZM48.6588-4.90341Q48.6588-5.37262 48.2849-5.77087Q47.9111-6.16913 47.4388-6.16913Q46.9208-6.16913 46.5469-5.77087Q46.1731-5.37262 46.1731-4.90341L46.1731 4.09317Q46.1731 4.56238 46.5469 4.93774Q46.9208 5.31311 47.4388 5.31311Q47.9111 5.31311 48.2849 4.93774Q48.6588 4.56238 48.6588 4.09317ZM48.6588-74.601Q48.6588-75.0702 48.2849-75.4456Q47.9111-75.8209 47.4388-75.8209Q46.9208-75.8209 46.5469-75.4456Q46.1731-75.0702 46.1731-74.601L46.1731-65.6044Q46.1731-65.1352 46.5469-64.7369Q46.9208-64.3387 47.4388-64.3387Q47.9111-64.3387 48.2849-64.7369Q48.6588-65.1352 48.6588-65.6044ZM86.7302-33.9882Q87.2444-33.9882 87.6202-34.3845Q87.9959-34.7809 87.9959-35.2539Q87.9959-35.7269 87.6202-36.1233Q87.2444-36.5196 86.7302-36.5196L77.7824-36.5196Q77.2644-36.5196 76.8906-36.1233Q76.5167-35.7269 76.5167-35.2539Q76.5167-34.7809 76.8906-34.3845Q77.2644-33.9882 77.7824-33.9882ZM25.0565-55.8029Q25.4044-55.4558 25.9243-55.4558Q26.4442-55.4558 26.8372-55.8029Q27.1881-56.1508 27.1881-56.6723Q27.1881-57.1938 26.8402-57.5417L20.5017-63.929Q20.2034-64.2761 19.659-64.2761Q19.1147-64.2761 18.7668-63.929Q18.3708-63.5811 18.3708-63.0596Q18.3708-62.5381 18.7637-62.1452ZM8.10165-36.5196Q7.58362-36.5196 7.20978-36.1233Q6.83594-35.7269 6.83594-35.2539Q6.83594-34.7809 7.20978-34.3845Q7.58362-33.9882 8.10165-33.9882L17.0456-33.9882Q17.5636-33.9882 17.9375-34.3845Q18.3113-34.7809 18.3113-35.2539Q18.3113-35.7269 17.9375-36.1233Q17.5636-36.5196 17.0456-36.5196ZM18.718-8.36639Q18.322-8.01544 18.322-7.4955Q18.322-6.97556 18.7149-6.58264Q19.0628-6.23474 19.5843-6.23322Q20.1057-6.23169 20.4529-6.57883L26.8372-12.9173Q27.1881-13.2195 27.1881-13.7619Q27.1881-14.3044 26.8402-14.6561Q26.4931-15.0032 25.9712-15.0032Q25.4494-15.0032 25.0565-14.6561Z"/>
  </g>
 </g>
</svg>
