<?xml version="1.0" encoding="UTF-8"?>
<!--Generator: Apple Native CoreSVG 175-->
<!DOCTYPE svg
PUBLIC "-//W3C//DTD SVG 1.1//EN"
       "http://www.w3.org/Graphics/SVG/1.1/DTD/svg11.dtd">
<svg version="1.1" xmlns="http://www.w3.org/2000/svg" xmlns:xlink="http://www.w3.org/1999/xlink" width="3300" height="2200">
 <!--glyph: "uni1001CF.medium", point size: 100.0, font version: "17.3d3e1", template writer version: "65.1"-->
 <style>.multicolor-0:white {fill:#FFFFFF;opacity:1.0}

.hierarchical-0:secondary {fill:#4D4D4D}
.hierarchical-1:primary {fill:#212121}

.SFSymbolsPreviewFFFFFF {fill:#FFFFFF;opacity:1.0}
</style>
 <g id="Notes">
  <rect height="2200" id="artboard" style="fill:white;opacity:1" width="3300" x="0" y="0"/>
  <line style="fill:none;stroke:black;opacity:1;stroke-width:0.5;" x1="263" x2="3036" y1="292" y2="292"/>
  <text style="stroke:none;fill:black;font-family:sans-serif;font-size:13;font-weight:bold;" transform="matrix(1 0 0 1 263 322)">Weight/Scale Variations</text>
  <text style="stroke:none;fill:black;font-family:sans-serif;font-size:13;text-anchor:middle;" transform="matrix(1 0 0 1 559.711 322)">Ultralight</text>
  <text style="stroke:none;fill:black;font-family:sans-serif;font-size:13;text-anchor:middle;" transform="matrix(1 0 0 1 856.422 322)">Thin</text>
  <text style="stroke:none;fill:black;font-family:sans-serif;font-size:13;text-anchor:middle;" transform="matrix(1 0 0 1 1153.13 322)">Light</text>
  <text style="stroke:none;fill:black;font-family:sans-serif;font-size:13;text-anchor:middle;" transform="matrix(1 0 0 1 1449.84 322)">Regular</text>
  <text style="stroke:none;fill:black;font-family:sans-serif;font-size:13;text-anchor:middle;" transform="matrix(1 0 0 1 1746.56 322)">Medium</text>
  <text style="stroke:none;fill:black;font-family:sans-serif;font-size:13;text-anchor:middle;" transform="matrix(1 0 0 1 2043.27 322)">Semibold</text>
  <text style="stroke:none;fill:black;font-family:sans-serif;font-size:13;text-anchor:middle;" transform="matrix(1 0 0 1 2339.98 322)">Bold</text>
  <text style="stroke:none;fill:black;font-family:sans-serif;font-size:13;text-anchor:middle;" transform="matrix(1 0 0 1 2636.69 322)">Heavy</text>
  <text style="stroke:none;fill:black;font-family:sans-serif;font-size:13;text-anchor:middle;" transform="matrix(1 0 0 1 2933.4 322)">Black</text>
  <line style="fill:none;stroke:black;opacity:1;stroke-width:0.5;" x1="263" x2="3036" y1="1903" y2="1903"/>
  <g transform="matrix(1 0 0 1 263 1933)">
   <path d="M9.24805 0.830078Q10.8691 0.830078 12.2949 0.214844Q13.7207-0.400391 14.8096-1.49414Q15.8984-2.58789 16.5186-4.01367Q17.1387-5.43945 17.1387-7.05078Q17.1387-8.66211 16.5186-10.0879Q15.8984-11.5137 14.8047-12.6074Q13.7109-13.7012 12.2852-14.3164Q10.8594-14.9316 9.23828-14.9316Q7.62695-14.9316 6.20117-14.3164Q4.77539-13.7012 3.69141-12.6074Q2.60742-11.5137 1.9873-10.0879Q1.36719-8.66211 1.36719-7.05078Q1.36719-5.43945 1.9873-4.01367Q2.60742-2.58789 3.69629-1.49414Q4.78516-0.400391 6.21094 0.214844Q7.63672 0.830078 9.24805 0.830078ZM9.24805-0.654297Q7.91992-0.654297 6.7627-1.14746Q5.60547-1.64062 4.73145-2.51953Q3.85742-3.39844 3.36426-4.56055Q2.87109-5.72266 2.87109-7.05078Q2.87109-8.37891 3.35938-9.54102Q3.84766-10.7031 4.72168-11.582Q5.5957-12.4609 6.75293-12.9541Q7.91016-13.4473 9.23828-13.4473Q10.5762-13.4473 11.7334-12.9541Q12.8906-12.4609 13.7695-11.582Q14.6484-10.7031 15.1465-9.54102Q15.6445-8.37891 15.6445-7.05078Q15.6445-5.72266 15.1514-4.56055Q14.6582-3.39844 13.7842-2.51953Q12.9102-1.64062 11.748-1.14746Q10.5859-0.654297 9.24805-0.654297ZM5.6543-7.05078Q5.6543-6.72852 5.85938-6.52832Q6.06445-6.32812 6.40625-6.32812L8.51562-6.32812L8.51562-4.20898Q8.51562-3.88672 8.71094-3.67676Q8.90625-3.4668 9.23828-3.4668Q9.56055-3.4668 9.77051-3.67676Q9.98047-3.88672 9.98047-4.20898L9.98047-6.32812L12.0898-6.32812Q12.4219-6.32812 12.627-6.52832Q12.832-6.72852 12.832-7.05078Q12.832-7.38281 12.627-7.58789Q12.4219-7.79297 12.0898-7.79297L9.98047-7.79297L9.98047-9.90234Q9.98047-10.2344 9.77051-10.4443Q9.56055-10.6543 9.23828-10.6543Q8.90625-10.6543 8.71094-10.4443Q8.51562-10.2344 8.51562-9.90234L8.51562-7.79297L6.40625-7.79297Q6.06445-7.79297 5.85938-7.58789Q5.6543-7.38281 5.6543-7.05078Z"/>
  </g>
  <g transform="matrix(1 0 0 1 281.867 1933)">
   <path d="M11.709 2.91016Q13.75 2.91016 15.5518 2.12891Q17.3535 1.34766 18.7305-0.0292969Q20.1074-1.40625 20.8887-3.20801Q21.6699-5.00977 21.6699-7.05078Q21.6699-9.0918 20.8887-10.8936Q20.1074-12.6953 18.7305-14.0723Q17.3535-15.4492 15.5469-16.2305Q13.7402-17.0117 11.6992-17.0117Q9.6582-17.0117 7.85645-16.2305Q6.05469-15.4492 4.68262-14.0723Q3.31055-12.6953 2.5293-10.8936Q1.74805-9.0918 1.74805-7.05078Q1.74805-5.00977 2.5293-3.20801Q3.31055-1.40625 4.6875-0.0292969Q6.06445 1.34766 7.86621 2.12891Q9.66797 2.91016 11.709 2.91016ZM11.709 1.25Q9.98047 1.25 8.47656 0.605469Q6.97266-0.0390625 5.83496-1.17676Q4.69727-2.31445 4.05762-3.81836Q3.41797-5.32227 3.41797-7.05078Q3.41797-8.7793 4.05762-10.2832Q4.69727-11.7871 5.83008-12.9297Q6.96289-14.0723 8.4668-14.7119Q9.9707-15.3516 11.6992-15.3516Q13.4277-15.3516 14.9316-14.7119Q16.4355-14.0723 17.5781-12.9297Q18.7207-11.7871 19.3652-10.2832Q20.0098-8.7793 20.0098-7.05078Q20.0098-5.32227 19.3701-3.81836Q18.7305-2.31445 17.5928-1.17676Q16.4551-0.0390625 14.9463 0.605469Q13.4375 1.25 11.709 1.25ZM7.17773-7.05078Q7.17773-6.69922 7.41211-6.47461Q7.64648-6.25 8.01758-6.25L10.8887-6.25L10.8887-3.36914Q10.8887-2.99805 11.1133-2.76855Q11.3379-2.53906 11.6895-2.53906Q12.0605-2.53906 12.29-2.76855Q12.5195-2.99805 12.5195-3.36914L12.5195-6.25L15.4004-6.25Q15.7715-6.25 16.001-6.47461Q16.2305-6.69922 16.2305-7.05078Q16.2305-7.42188 16.001-7.65137Q15.7715-7.88086 15.4004-7.88086L12.5195-7.88086L12.5195-10.752Q12.5195-11.1328 12.29-11.3623Q12.0605-11.5918 11.6895-11.5918Q11.3379-11.5918 11.1133-11.3574Q10.8887-11.123 10.8887-10.752L10.8887-7.88086L8.01758-7.88086Q7.63672-7.88086 7.40723-7.65137Q7.17773-7.42188 7.17773-7.05078Z"/>
  </g>
  <g transform="matrix(1 0 0 1 305.646 1933)">
   <path d="M14.9707 5.66406Q17.0605 5.66406 18.96 5.01465Q20.8594 4.36523 22.4512 3.19336Q24.043 2.02148 25.2197 0.429688Q26.3965-1.16211 27.0459-3.06641Q27.6953-4.9707 27.6953-7.05078Q27.6953-9.14062 27.0459-11.04Q26.3965-12.9395 25.2197-14.5312Q24.043-16.123 22.4512-17.2998Q20.8594-18.4766 18.9551-19.126Q17.0508-19.7754 14.9609-19.7754Q12.8711-19.7754 10.9717-19.126Q9.07227-18.4766 7.48535-17.2998Q5.89844-16.123 4.72168-14.5312Q3.54492-12.9395 2.90039-11.04Q2.25586-9.14062 2.25586-7.05078Q2.25586-4.9707 2.90527-3.06641Q3.55469-1.16211 4.72656 0.429688Q5.89844 2.02148 7.49023 3.19336Q9.08203 4.36523 10.9814 5.01465Q12.8809 5.66406 14.9707 5.66406ZM14.9707 3.84766Q13.1641 3.84766 11.5283 3.2959Q9.89258 2.74414 8.53516 1.74805Q7.17773 0.751953 6.17676-0.610352Q5.17578-1.97266 4.62891-3.6084Q4.08203-5.24414 4.08203-7.05078Q4.08203-8.86719 4.62891-10.5029Q5.17578-12.1387 6.17188-13.501Q7.16797-14.8633 8.52539-15.8594Q9.88281-16.8555 11.5186-17.4023Q13.1543-17.9492 14.9609-17.9492Q16.7773-17.9492 18.4131-17.4023Q20.0488-16.8555 21.4111-15.8594Q22.7734-14.8633 23.7695-13.501Q24.7656-12.1387 25.3174-10.5029Q25.8691-8.86719 25.8691-7.05078Q25.8789-5.24414 25.332-3.6084Q24.7852-1.97266 23.7842-0.610352Q22.7832 0.751953 21.4209 1.74805Q20.0586 2.74414 18.4229 3.2959Q16.7871 3.84766 14.9707 3.84766ZM9.19922-7.05078Q9.19922-6.66992 9.45801-6.4209Q9.7168-6.17188 10.1172-6.17188L14.0625-6.17188L14.0625-2.2168Q14.0625-1.81641 14.3115-1.55762Q14.5605-1.29883 14.9512-1.29883Q15.3516-1.29883 15.6104-1.55273Q15.8691-1.80664 15.8691-2.2168L15.8691-6.17188L19.8242-6.17188Q20.2246-6.17188 20.4785-6.4209Q20.7324-6.66992 20.7324-7.05078Q20.7324-7.46094 20.4785-7.71484Q20.2246-7.96875 19.8242-7.96875L15.8691-7.96875L15.8691-11.9141Q15.8691-12.3242 15.6104-12.583Q15.3516-12.8418 14.9512-12.8418Q14.5605-12.8418 14.3115-12.583Q14.0625-12.3242 14.0625-11.9141L14.0625-7.96875L10.1172-7.96875Q9.70703-7.96875 9.45312-7.71484Q9.19922-7.46094 9.19922-7.05078Z"/>
  </g>
  <text style="stroke:none;fill:black;font-family:sans-serif;font-size:13;font-weight:bold;" transform="matrix(1 0 0 1 263 1953)">Design Variations</text>
  <text style="stroke:none;fill:black;font-family:sans-serif;font-size:13;" transform="matrix(1 0 0 1 263 1971)">Symbols are supported in up to nine weights and three scales.</text>
  <text style="stroke:none;fill:black;font-family:sans-serif;font-size:13;" transform="matrix(1 0 0 1 263 1989)">For optimal layout with text and other symbols, vertically align</text>
  <text style="stroke:none;fill:black;font-family:sans-serif;font-size:13;" transform="matrix(1 0 0 1 263 2007)">symbols with the adjacent text.</text>
  <line style="fill:none;stroke:#00AEEF;stroke-width:0.5;opacity:1.0;" x1="776" x2="776" y1="1919" y2="1933"/>
  <g transform="matrix(1 0 0 1 776 1933)">
   <path d="M3.31055 0.15625Q3.70117 0.15625 3.91602-0.00976562Q4.13086-0.175781 4.26758-0.585938L5.52734-4.0332L11.2891-4.0332L12.5488-0.585938Q12.6855-0.175781 12.9004-0.00976562Q13.1152 0.15625 13.4961 0.15625Q13.8867 0.15625 14.1162-0.0585938Q14.3457-0.273438 14.3457-0.644531Q14.3457-0.869141 14.2383-1.17188L9.6582-13.3691Q9.48242-13.8184 9.17969-14.043Q8.87695-14.2676 8.4082-14.2676Q7.5-14.2676 7.17773-13.3789L2.59766-1.16211Q2.49023-0.859375 2.49023-0.634766Q2.49023-0.263672 2.70996-0.0537109Q2.92969 0.15625 3.31055 0.15625ZM6.00586-5.51758L8.37891-12.0898L8.42773-12.0898L10.8008-5.51758Z"/>
  </g>
  <line style="fill:none;stroke:#00AEEF;stroke-width:0.5;opacity:1.0;" x1="793.197" x2="793.197" y1="1919" y2="1933"/>
  <text style="stroke:none;fill:black;font-family:sans-serif;font-size:13;font-weight:bold;" transform="matrix(1 0 0 1 776 1953)">Margins</text>
  <text style="stroke:none;fill:black;font-family:sans-serif;font-size:13;" transform="matrix(1 0 0 1 776 1971)">Leading and trailing margins on the left and right side of each symbol</text>
  <text style="stroke:none;fill:black;font-family:sans-serif;font-size:13;" transform="matrix(1 0 0 1 776 1989)">can be adjusted by modifying the x-location of the margin guidelines.</text>
  <text style="stroke:none;fill:black;font-family:sans-serif;font-size:13;" transform="matrix(1 0 0 1 776 2007)">Modifications are automatically applied proportionally to all</text>
  <text style="stroke:none;fill:black;font-family:sans-serif;font-size:13;" transform="matrix(1 0 0 1 776 2025)">scales and weights.</text>
  <g transform="matrix(1 0 0 1 1289 1933)">
   <path d="M2.8418 1.86523L4.54102 3.57422Q5.18555 4.22852 5.90332 4.17969Q6.62109 4.13086 7.31445 3.35938L18.0078-8.42773L17.041-9.4043L6.42578 2.27539Q6.16211 2.57812 5.89355 2.61719Q5.625 2.65625 5.27344 2.30469L4.10156 1.14258Q3.75 0.791016 3.79395 0.522461Q3.83789 0.253906 4.14062-0.0195312L15.6152-10.8203L14.6387-11.7871L3.04688-0.898438Q2.30469-0.214844 2.25098 0.498047Q2.19727 1.21094 2.8418 1.86523ZM9.25781-16.3281Q8.94531-16.0254 8.90625-15.6348Q8.86719-15.2441 9.04297-14.9512Q9.21875-14.6777 9.55566-14.541Q9.89258-14.4043 10.3809-14.5215Q11.4746-14.7754 12.5977-14.7314Q13.7207-14.6875 14.7949-13.9844L14.209-12.5293Q13.9551-11.9043 14.0674-11.4404Q14.1797-10.9766 14.5801-10.5664L16.875-8.25195Q17.2363-7.88086 17.5781-7.82227Q17.9199-7.76367 18.3398-7.8418L19.4043-8.03711L20.0684-7.36328L20.0293-6.80664Q20-6.43555 20.1221-6.12305Q20.2441-5.81055 20.6055-5.44922L21.3672-4.70703Q21.7285-4.3457 22.1533-4.33105Q22.5781-4.31641 22.9297-4.66797L25.8398-7.58789Q26.1914-7.93945 26.1816-8.35449Q26.1719-8.76953 25.8105-9.13086L25.0391-9.89258Q24.6875-10.2539 24.3799-10.3857Q24.0723-10.5176 23.7109-10.4883L23.1348-10.4395L22.4902-11.0742L22.7344-12.1973Q22.832-12.6172 22.6953-12.9834Q22.5586-13.3496 22.1191-13.7891L19.9219-15.9766Q18.6719-17.2168 17.2607-17.8369Q15.8496-18.457 14.4189-18.4814Q12.9883-18.5059 11.665-17.959Q10.3418-17.4121 9.25781-16.3281ZM10.752-15.957Q11.6602-16.6211 12.7002-16.9043Q13.7402-17.1875 14.8047-17.085Q15.8691-16.9824 16.8701-16.5137Q17.8711-16.0449 18.7012-15.2051L21.1328-12.793Q21.3086-12.6172 21.3525-12.4512Q21.3965-12.2852 21.3379-12.0312L21.0156-10.5469L22.5195-9.0625L23.5059-9.12109Q23.6914-9.13086 23.7891-9.09668Q23.8867-9.0625 24.0332-8.91602L24.6094-8.33984L22.168-5.89844L21.5918-6.47461Q21.4453-6.62109 21.4062-6.71875Q21.3672-6.81641 21.377-7.01172L21.4453-7.98828L19.9512-9.47266L18.4277-9.21875Q18.1836-9.16992 18.042-9.2041Q17.9004-9.23828 17.7148-9.41406L15.7129-11.416Q15.5176-11.5918 15.4932-11.7529Q15.4688-11.9141 15.5859-12.1875L16.4648-14.2773Q15.293-15.3711 13.8281-15.791Q12.3633-16.2109 10.8398-15.7617Q10.7227-15.7324 10.6885-15.8057Q10.6543-15.8789 10.752-15.957Z"/>
  </g>
  <text style="stroke:none;fill:black;font-family:sans-serif;font-size:13;font-weight:bold;" transform="matrix(1 0 0 1 1289 1953)">Exporting</text>
  <text style="stroke:none;fill:black;font-family:sans-serif;font-size:13;" transform="matrix(1 0 0 1 1289 1971)">Symbols should be outlined when exporting to ensure the</text>
  <text style="stroke:none;fill:black;font-family:sans-serif;font-size:13;" transform="matrix(1 0 0 1 1289 1989)">design is preserved when submitting to Xcode.</text>
  <text id="template-version" style="stroke:none;fill:black;font-family:sans-serif;font-size:13;text-anchor:end;" transform="matrix(1 0 0 1 3036 1933)">Template v.3.0</text>
  <text style="stroke:none;fill:black;font-family:sans-serif;font-size:13;text-anchor:end;" transform="matrix(1 0 0 1 3036 1951)">Requires Xcode 13 or greater</text>
  <text id="descriptive-name" style="stroke:none;fill:black;font-family:sans-serif;font-size:13;text-anchor:end;" transform="matrix(1 0 0 1 3036 1969)">Generated from cloud.snow.fill</text>
  <text style="stroke:none;fill:black;font-family:sans-serif;font-size:13;text-anchor:end;" transform="matrix(1 0 0 1 3036 1987)">Typeset at 100 points</text>
  <text style="stroke:none;fill:black;font-family:sans-serif;font-size:13;" transform="matrix(1 0 0 1 263 726)">Small</text>
  <text style="stroke:none;fill:black;font-family:sans-serif;font-size:13;" transform="matrix(1 0 0 1 263 1156)">Medium</text>
  <text style="stroke:none;fill:black;font-family:sans-serif;font-size:13;" transform="matrix(1 0 0 1 263 1586)">Large</text>
 </g>
 <g id="Guides">
  <g id="H-reference" style="fill:#27AAE1;stroke:none;" transform="matrix(1 0 0 1 339 696)">
   <path d="M0.993347 0L3.6377 0L29.3282-67.1326L30.0301-67.1326L30.0301-70.459L28.1227-70.459ZM11.6882-24.4797L46.9818-24.4797L46.2311-26.7288L12.4382-26.7288ZM55.1193 0L57.7637 0L30.6381-70.459L29.4327-70.459L29.4327-67.1326Z"/>
  </g>
  <line id="Baseline-S" style="fill:none;stroke:#27AAE1;opacity:1;stroke-width:0.5;" x1="263" x2="3036" y1="696" y2="696"/>
  <line id="Capline-S" style="fill:none;stroke:#27AAE1;opacity:1;stroke-width:0.5;" x1="263" x2="3036" y1="625.541" y2="625.541"/>
  <g id="H-reference" style="fill:#27AAE1;stroke:none;" transform="matrix(1 0 0 1 339 1126)">
   <path d="M0.993347 0L3.6377 0L29.3282-67.1326L30.0301-67.1326L30.0301-70.459L28.1227-70.459ZM11.6882-24.4797L46.9818-24.4797L46.2311-26.7288L12.4382-26.7288ZM55.1193 0L57.7637 0L30.6381-70.459L29.4327-70.459L29.4327-67.1326Z"/>
  </g>
  <line id="Baseline-M" style="fill:none;stroke:#27AAE1;opacity:1;stroke-width:0.5;" x1="263" x2="3036" y1="1126" y2="1126"/>
  <line id="Capline-M" style="fill:none;stroke:#27AAE1;opacity:1;stroke-width:0.5;" x1="263" x2="3036" y1="1055.54" y2="1055.54"/>
  <g id="H-reference" style="fill:#27AAE1;stroke:none;" transform="matrix(1 0 0 1 339 1556)">
   <path d="M0.993347 0L3.6377 0L29.3282-67.1326L30.0301-67.1326L30.0301-70.459L28.1227-70.459ZM11.6882-24.4797L46.9818-24.4797L46.2311-26.7288L12.4382-26.7288ZM55.1193 0L57.7637 0L30.6381-70.459L29.4327-70.459L29.4327-67.1326Z"/>
  </g>
  <line id="Baseline-L" style="fill:none;stroke:#27AAE1;opacity:1;stroke-width:0.5;" x1="263" x2="3036" y1="1556" y2="1556"/>
  <line id="Capline-L" style="fill:none;stroke:#27AAE1;opacity:1;stroke-width:0.5;" x1="263" x2="3036" y1="1485.54" y2="1485.54"/>
  <line id="left-margin-Ultralight-S" style="fill:none;stroke:#00AEEF;stroke-width:0.5;opacity:1.0;" x1="512.046" x2="512.046" y1="600.785" y2="720.121"/>
  <line id="right-margin-Ultralight-S" style="fill:none;stroke:#00AEEF;stroke-width:0.5;opacity:1.0;" x1="607.376" x2="607.376" y1="600.785" y2="720.121"/>
  <line id="left-margin-Regular-S" style="fill:none;stroke:#00AEEF;stroke-width:0.5;opacity:1.0;" x1="1401.09" x2="1401.09" y1="600.785" y2="720.121"/>
  <line id="right-margin-Regular-S" style="fill:none;stroke:#00AEEF;stroke-width:0.5;opacity:1.0;" x1="1498.6" x2="1498.6" y1="600.785" y2="720.121"/>
  <line id="left-margin-Black-S" style="fill:none;stroke:#00AEEF;stroke-width:0.5;opacity:1.0;" x1="2881.11" x2="2881.11" y1="600.785" y2="720.121"/>
  <line id="right-margin-Black-S" style="fill:none;stroke:#00AEEF;stroke-width:0.5;opacity:1.0;" x1="2985.69" x2="2985.69" y1="600.785" y2="720.121"/>
 </g>
 <g id="Symbols">
  <g id="Black-S" transform="matrix(1 0 0 1 2881.11 696)">
   <path class="multicolor-0:white hierarchical-1:primary SFSymbolsPreviewFFFFFF" d="M28.1738-15.7227L76.8066-15.7227Q83.8379-15.7227 89.4775-18.9697Q95.1172-22.2168 98.3887-27.7832Q101.66-33.3496 101.66-40.2344Q101.66-47.168 98.4619-52.7588Q95.2637-58.3496 89.7217-61.6699Q84.1797-64.9902 77.1484-64.9902Q75-69.0918 71.5088-72.583Q68.0176-76.0742 62.8662-78.1738Q57.7148-80.2734 50.5371-80.2734Q42.5293-80.2734 36.084-76.8555Q29.6387-73.4375 25.4639-67.627Q21.2891-61.8164 20.1172-54.5898Q14.4531-52.4902 10.6445-47.6807Q6.83594-42.8711 6.83594-36.0352Q6.83594-30.2734 9.5459-25.6836Q12.2559-21.0938 17.0654-18.4082Q21.875-15.7227 28.1738-15.7227Z"/>
   <path class="multicolor-0:white hierarchical-0:secondary SFSymbolsPreviewFFFFFF" d="M62.5488 20.752Q63.3789 20.752 63.8428 20.1416Q64.3066 19.5312 64.1602 18.6523L63.4766 15.0879L66.3086 17.4316Q66.9922 18.0176 67.7246 17.9443Q68.457 17.8711 68.8477 17.1387Q69.2871 16.4062 68.9697 15.6738Q68.6523 14.9414 67.8223 14.5996L64.5508 13.4277L67.8711 12.207Q68.7012 11.8652 69.0186 11.1816Q69.3359 10.498 68.8965 9.76562Q68.5059 9.08203 67.7246 8.95996Q66.9434 8.83789 66.2598 9.42383L63.5254 11.6211L64.1602 8.20312Q64.3066 7.32422 63.8428 6.71387Q63.3789 6.10352 62.5488 6.10352Q61.7188 6.10352 61.2305 6.71387Q60.7422 7.32422 60.8887 8.20312L61.4746 11.6211L58.7891 9.375Q58.1055 8.83789 57.3242 8.95996Q56.543 9.08203 56.1523 9.76562Q55.7617 10.498 56.0791 11.1816Q56.3965 11.8652 57.2266 12.207L60.5957 13.3789L57.1777 14.6484Q56.3965 14.9902 56.0791 15.6982Q55.7617 16.4062 56.2012 17.1387Q56.5918 17.8711 57.3486 17.9443Q58.1055 18.0176 58.7891 17.4316L61.4746 15.1855L60.8887 18.6523Q60.7422 19.5312 61.2305 20.1416Q61.7188 20.752 62.5488 20.752ZM41.3574 20.752Q42.1875 20.752 42.6514 20.1416Q43.1152 19.5312 42.9688 18.6523L42.2852 15.0879L45.1172 17.4316Q45.8008 18.0176 46.5332 17.9443Q47.2656 17.8711 47.6562 17.1387Q48.0957 16.4062 47.7783 15.6738Q47.4609 14.9414 46.6309 14.5996L43.3594 13.4277L46.6797 12.207Q47.5098 11.8652 47.8271 11.1816Q48.1445 10.498 47.7051 9.76562Q47.3145 9.08203 46.5332 8.95996Q45.752 8.83789 45.0684 9.42383L42.334 11.6211L42.9688 8.20312Q43.1152 7.32422 42.6514 6.71387Q42.1875 6.10352 41.3574 6.10352Q40.5273 6.10352 40.0391 6.71387Q39.5508 7.32422 39.6973 8.20312L40.2832 11.6211L37.5977 9.375Q36.9141 8.83789 36.1328 8.95996Q35.3516 9.08203 34.9609 9.76562Q34.5703 10.498 34.8877 11.1816Q35.2051 11.8652 36.0352 12.207L39.4043 13.3789L35.9863 14.6484Q35.2051 14.9902 34.8877 15.6982Q34.5703 16.4062 35.0098 17.1387Q35.4004 17.8711 36.1572 17.9443Q36.9141 18.0176 37.5977 17.4316L40.2832 15.1855L39.6973 18.6523Q39.5508 19.5312 40.0391 20.1416Q40.5273 20.752 41.3574 20.752ZM70.8496 6.39648Q71.6797 6.39648 72.1436 5.78613Q72.6074 5.17578 72.4609 4.29688L71.7773 0.732422L74.6094 3.07617Q75.293 3.66211 76.0254 3.58887Q76.7578 3.51562 77.1484 2.7832Q77.5879 2.05078 77.2705 1.31836Q76.9531 0.585938 76.123 0.244141L72.8516-0.927734L76.1719-2.14844Q77.002-2.49023 77.3193-3.17383Q77.6367-3.85742 77.1973-4.58984Q76.8066-5.27344 76.0254-5.39551Q75.2441-5.51758 74.5605-4.93164L71.8262-2.73438L72.4609-6.15234Q72.6074-7.03125 72.1436-7.6416Q71.6797-8.25195 70.8496-8.25195Q70.0195-8.25195 69.5312-7.6416Q69.043-7.03125 69.1895-6.15234L69.7754-2.73438L67.0898-4.98047Q66.4062-5.51758 65.625-5.39551Q64.8438-5.27344 64.4531-4.58984Q64.0625-3.85742 64.3799-3.17383Q64.6973-2.49023 65.5273-2.14844L68.8965-0.976562L65.4785 0.292969Q64.6973 0.634766 64.3799 1.34277Q64.0625 2.05078 64.502 2.7832Q64.8926 3.51562 65.6494 3.58887Q66.4062 3.66211 67.0898 3.07617L69.7754 0.830078L69.1895 4.29688Q69.043 5.17578 69.5312 5.78613Q70.0195 6.39648 70.8496 6.39648ZM49.6582 6.39648Q50.4883 6.39648 50.9521 5.78613Q51.416 5.17578 51.2695 4.29688L50.5859 0.732422L53.418 3.07617Q54.1016 3.66211 54.834 3.58887Q55.5664 3.51562 55.957 2.7832Q56.3965 2.05078 56.0791 1.31836Q55.7617 0.585938 54.9316 0.244141L51.6602-0.927734L54.9805-2.14844Q55.8105-2.49023 56.1279-3.17383Q56.4453-3.85742 56.0059-4.58984Q55.6152-5.27344 54.834-5.39551Q54.0527-5.51758 53.3691-4.93164L50.6348-2.73438L51.2695-6.15234Q51.416-7.03125 50.9521-7.6416Q50.4883-8.25195 49.6582-8.25195Q48.8281-8.25195 48.3398-7.6416Q47.8516-7.03125 47.998-6.15234L48.584-2.73438L45.8984-4.98047Q45.2148-5.51758 44.4336-5.39551Q43.6523-5.27344 43.2617-4.58984Q42.8711-3.85742 43.1885-3.17383Q43.5059-2.49023 44.3359-2.14844L47.7051-0.976562L44.2871 0.292969Q43.5059 0.634766 43.1885 1.34277Q42.8711 2.05078 43.3105 2.7832Q43.7012 3.51562 44.458 3.58887Q45.2148 3.66211 45.8984 3.07617L48.584 0.830078L47.998 4.29688Q47.8516 5.17578 48.3398 5.78613Q48.8281 6.39648 49.6582 6.39648ZM20.166 20.752Q20.9961 20.752 21.46 20.1416Q21.9238 19.5312 21.7773 18.6523L21.0938 15.0879L23.9258 17.4316Q24.6094 18.0176 25.3418 17.9443Q26.0742 17.8711 26.4648 17.1387Q26.9043 16.4062 26.5869 15.6738Q26.2695 14.9414 25.4395 14.5996L22.168 13.4277L25.4883 12.207Q26.3184 11.8652 26.6357 11.1816Q26.9531 10.498 26.5137 9.76562Q26.123 9.08203 25.3418 8.95996Q24.5605 8.83789 23.877 9.42383L21.1426 11.6211L21.7773 8.20312Q21.9238 7.32422 21.46 6.71387Q20.9961 6.10352 20.166 6.10352Q19.3359 6.10352 18.8477 6.71387Q18.3594 7.32422 18.5059 8.20312L19.0918 11.6211L16.4062 9.375Q15.7227 8.83789 14.9414 8.95996Q14.1602 9.08203 13.7695 9.76562Q13.3789 10.498 13.6963 11.1816Q14.0137 11.8652 14.8438 12.207L18.2129 13.3789L14.7949 14.6484Q14.0137 14.9902 13.6963 15.6982Q13.3789 16.4062 13.8184 17.1387Q14.209 17.8711 14.9658 17.9443Q15.7227 18.0176 16.4062 17.4316L19.0918 15.1855L18.5059 18.6523Q18.3594 19.5312 18.8477 20.1416Q19.3359 20.752 20.166 20.752ZM28.4668 6.39648Q29.2969 6.39648 29.7607 5.78613Q30.2246 5.17578 30.0781 4.29688L29.3945 0.732422L32.2266 3.07617Q32.9102 3.66211 33.6426 3.58887Q34.375 3.51562 34.7656 2.7832Q35.2051 2.05078 34.8877 1.31836Q34.5703 0.585938 33.7402 0.244141L30.4688-0.927734L33.7891-2.14844Q34.6191-2.49023 34.9365-3.17383Q35.2539-3.85742 34.8145-4.58984Q34.4238-5.27344 33.6426-5.39551Q32.8613-5.51758 32.1777-4.93164L29.4434-2.73438L30.0781-6.15234Q30.2246-7.03125 29.7607-7.6416Q29.2969-8.25195 28.4668-8.25195Q27.6367-8.25195 27.1484-7.6416Q26.6602-7.03125 26.8066-6.15234L27.3926-2.73438L24.707-4.98047Q24.0234-5.51758 23.2422-5.39551Q22.4609-5.27344 22.0703-4.58984Q21.6797-3.85742 21.9971-3.17383Q22.3145-2.49023 23.1445-2.14844L26.5137-0.976562L23.0957 0.292969Q22.3145 0.634766 21.9971 1.34277Q21.6797 2.05078 22.1191 2.7832Q22.5098 3.51562 23.2666 3.58887Q24.0234 3.66211 24.707 3.07617L27.3926 0.830078L26.8066 4.29688Q26.6602 5.17578 27.1484 5.78613Q27.6367 6.39648 28.4668 6.39648Z"/>
  </g>
  <g id="Regular-S" transform="matrix(1 0 0 1 1401.09 696)">
   <path class="multicolor-0:white hierarchical-1:primary SFSymbolsPreviewFFFFFF" d="M25.1465-16.748L72.4609-16.748Q78.8086-16.748 83.8135-19.6777Q88.8184-22.6074 91.6992-27.5146Q94.5801-32.4219 94.5801-38.3789Q94.5801-44.5801 91.5283-49.4141Q88.4766-54.248 83.2275-57.0312Q77.9785-59.8145 71.4355-59.8145Q69.043-64.502 65.332-67.9443Q61.6211-71.3867 56.8848-73.291Q52.1484-75.1953 46.7285-75.1953Q39.4531-75.1953 33.374-71.7773Q27.2949-68.3594 23.4131-62.5977Q19.5312-56.8359 18.8965-49.707Q13.7207-48.1934 10.2783-43.8721Q6.83594-39.5508 6.83594-33.4473Q6.83594-28.8086 8.98438-25.0244Q11.1328-21.2402 15.2344-18.9941Q19.3359-16.748 25.1465-16.748Z"/>
   <path class="multicolor-0:white hierarchical-0:secondary SFSymbolsPreviewFFFFFF" d="M61.084 16.6016Q61.6211 16.6016 61.9629 16.1865Q62.3047 15.7715 62.3047 15.1855L62.0117 11.6699L64.9414 13.7207Q65.3809 14.0137 65.9424 13.8916Q66.5039 13.7695 66.7969 13.3301Q67.0898 12.8906 66.9434 12.3047Q66.7969 11.7188 66.2109 11.4746L62.9883 9.91211L66.2598 8.34961Q66.7969 8.10547 66.9434 7.51953Q67.0898 6.93359 66.8457 6.49414Q66.6016 6.05469 65.9912 5.95703Q65.3809 5.85938 64.9414 6.10352L62.0117 8.25195L62.3535 4.63867Q62.4023 4.05273 62.0117 3.6377Q61.6211 3.22266 61.084 3.22266Q60.4492 3.22266 60.1074 3.6377Q59.7656 4.05273 59.7656 4.63867L60.0586 8.25195L57.0801 6.10352Q56.6406 5.85938 56.1035 5.93262Q55.5664 6.00586 55.2734 6.49414Q55.0293 6.93359 55.127 7.49512Q55.2246 8.05664 55.8105 8.34961L59.0332 9.91211L55.8105 11.4746Q55.2246 11.7188 55.1025 12.2803Q54.9805 12.8418 55.2246 13.3301Q55.4688 13.8184 56.0547 13.916Q56.6406 14.0137 57.0801 13.7207L60.0586 11.6699L59.8145 15.1855Q59.8145 15.7715 60.1318 16.1865Q60.4492 16.6016 61.084 16.6016ZM39.8926 16.6016Q40.4297 16.6016 40.7715 16.1865Q41.1133 15.7715 41.1133 15.1855L40.8203 11.6699L43.75 13.7207Q44.1895 14.0137 44.751 13.8916Q45.3125 13.7695 45.6055 13.3301Q45.8984 12.8906 45.752 12.3047Q45.6055 11.7188 45.0195 11.4746L41.7969 9.91211L45.0684 8.34961Q45.6055 8.10547 45.752 7.51953Q45.8984 6.93359 45.6543 6.49414Q45.4102 6.05469 44.7998 5.95703Q44.1895 5.85938 43.75 6.10352L40.8203 8.25195L41.1621 4.63867Q41.2109 4.05273 40.8203 3.6377Q40.4297 3.22266 39.8926 3.22266Q39.2578 3.22266 38.916 3.6377Q38.5742 4.05273 38.5742 4.63867L38.8672 8.25195L35.8887 6.10352Q35.4492 5.85938 34.9121 5.93262Q34.375 6.00586 34.082 6.49414Q33.8379 6.93359 33.9355 7.49512Q34.0332 8.05664 34.6191 8.34961L37.8418 9.91211L34.6191 11.4746Q34.0332 11.7188 33.9111 12.2803Q33.7891 12.8418 34.0332 13.3301Q34.2773 13.8184 34.8633 13.916Q35.4492 14.0137 35.8887 13.7207L38.8672 11.6699L38.623 15.1855Q38.623 15.7715 38.9404 16.1865Q39.2578 16.6016 39.8926 16.6016ZM69.3848 2.24609Q69.9219 2.24609 70.2637 1.83105Q70.6055 1.41602 70.6055 0.830078L70.3125-2.68555L73.2422-0.634766Q73.6816-0.341797 74.2432-0.463867Q74.8047-0.585938 75.0977-1.02539Q75.3906-1.46484 75.2441-2.05078Q75.0977-2.63672 74.5117-2.88086L71.2891-4.44336L74.5605-6.00586Q75.0977-6.25 75.2441-6.83594Q75.3906-7.42188 75.1465-7.86133Q74.9023-8.30078 74.292-8.39844Q73.6816-8.49609 73.2422-8.25195L70.3125-6.10352L70.6543-9.7168Q70.7031-10.3027 70.3125-10.7178Q69.9219-11.1328 69.3848-11.1328Q68.75-11.1328 68.4082-10.7178Q68.0664-10.3027 68.0664-9.7168L68.3594-6.10352L65.3809-8.25195Q64.9414-8.49609 64.4043-8.42285Q63.8672-8.34961 63.5742-7.86133Q63.3301-7.42188 63.4277-6.86035Q63.5254-6.29883 64.1113-6.00586L67.334-4.44336L64.1113-2.88086Q63.5254-2.63672 63.4033-2.0752Q63.2812-1.51367 63.5254-1.02539Q63.7695-0.537109 64.3555-0.439453Q64.9414-0.341797 65.3809-0.634766L68.3594-2.68555L68.1152 0.830078Q68.1152 1.41602 68.4326 1.83105Q68.75 2.24609 69.3848 2.24609ZM48.1934 2.24609Q48.7305 2.24609 49.0723 1.83105Q49.4141 1.41602 49.4141 0.830078L49.1211-2.68555L52.0508-0.634766Q52.4902-0.341797 53.0518-0.463867Q53.6133-0.585938 53.9062-1.02539Q54.1992-1.46484 54.0527-2.05078Q53.9062-2.63672 53.3203-2.88086L50.0977-4.44336L53.3691-6.00586Q53.9062-6.25 54.0527-6.83594Q54.1992-7.42188 53.9551-7.86133Q53.7109-8.30078 53.1006-8.39844Q52.4902-8.49609 52.0508-8.25195L49.1211-6.10352L49.4629-9.7168Q49.5117-10.3027 49.1211-10.7178Q48.7305-11.1328 48.1934-11.1328Q47.5586-11.1328 47.2168-10.7178Q46.875-10.3027 46.875-9.7168L47.168-6.10352L44.1895-8.25195Q43.75-8.49609 43.2129-8.42285Q42.6758-8.34961 42.3828-7.86133Q42.1387-7.42188 42.2363-6.86035Q42.334-6.29883 42.9199-6.00586L46.1426-4.44336L42.9199-2.88086Q42.334-2.63672 42.2119-2.0752Q42.0898-1.51367 42.334-1.02539Q42.5781-0.537109 43.1641-0.439453Q43.75-0.341797 44.1895-0.634766L47.168-2.68555L46.9238 0.830078Q46.9238 1.41602 47.2412 1.83105Q47.5586 2.24609 48.1934 2.24609ZM18.7012 16.6016Q19.2383 16.6016 19.5801 16.1865Q19.9219 15.7715 19.9219 15.1855L19.6289 11.6699L22.5586 13.7207Q22.998 14.0137 23.5596 13.8916Q24.1211 13.7695 24.4141 13.3301Q24.707 12.8906 24.5605 12.3047Q24.4141 11.7188 23.8281 11.4746L20.6055 9.91211L23.877 8.34961Q24.4141 8.10547 24.5605 7.51953Q24.707 6.93359 24.4629 6.49414Q24.2188 6.05469 23.6084 5.95703Q22.998 5.85938 22.5586 6.10352L19.6289 8.25195L19.9707 4.63867Q20.0195 4.05273 19.6289 3.6377Q19.2383 3.22266 18.7012 3.22266Q18.0664 3.22266 17.7246 3.6377Q17.3828 4.05273 17.3828 4.63867L17.6758 8.25195L14.6973 6.10352Q14.2578 5.85938 13.7207 5.93262Q13.1836 6.00586 12.8906 6.49414Q12.6465 6.93359 12.7441 7.49512Q12.8418 8.05664 13.4277 8.34961L16.6504 9.91211L13.4277 11.4746Q12.8418 11.7188 12.7197 12.2803Q12.5977 12.8418 12.8418 13.3301Q13.0859 13.8184 13.6719 13.916Q14.2578 14.0137 14.6973 13.7207L17.6758 11.6699L17.4316 15.1855Q17.4316 15.7715 17.749 16.1865Q18.0664 16.6016 18.7012 16.6016ZM27.002 2.24609Q27.5391 2.24609 27.8809 1.83105Q28.2227 1.41602 28.2227 0.830078L27.9297-2.68555L30.8594-0.634766Q31.2988-0.341797 31.8604-0.463867Q32.4219-0.585938 32.7148-1.02539Q33.0078-1.46484 32.8613-2.05078Q32.7148-2.63672 32.1289-2.88086L28.9062-4.44336L32.1777-6.00586Q32.7148-6.25 32.8613-6.83594Q33.0078-7.42188 32.7637-7.86133Q32.5195-8.30078 31.9092-8.39844Q31.2988-8.49609 30.8594-8.25195L27.9297-6.10352L28.2715-9.7168Q28.3203-10.3027 27.9297-10.7178Q27.5391-11.1328 27.002-11.1328Q26.3672-11.1328 26.0254-10.7178Q25.6836-10.3027 25.6836-9.7168L25.9766-6.10352L22.998-8.25195Q22.5586-8.49609 22.0215-8.42285Q21.4844-8.34961 21.1914-7.86133Q20.9473-7.42188 21.0449-6.86035Q21.1426-6.29883 21.7285-6.00586L24.9512-4.44336L21.7285-2.88086Q21.1426-2.63672 21.0205-2.0752Q20.8984-1.51367 21.1426-1.02539Q21.3867-0.537109 21.9727-0.439453Q22.5586-0.341797 22.998-0.634766L25.9766-2.68555L25.7324 0.830078Q25.7324 1.41602 26.0498 1.83105Q26.3672 2.24609 27.002 2.24609Z"/>
  </g>
  <g id="Ultralight-S" transform="matrix(1 0 0 1 512.046 696)">
   <path class="multicolor-0:white hierarchical-1:primary SFSymbolsPreviewFFFFFF" d="M23.3757-18.7004L71.5981-18.7004Q77.446-18.7004 82.156-21.3806Q86.866-24.0608 89.6332-28.5591Q92.4004-33.0574 92.4004-38.6063Q92.4004-44.2619 89.5077-48.6874Q86.615-53.1128 81.6608-55.669Q76.7067-58.2253 70.5727-58.2253Q68.1801-63.1851 64.6507-66.832Q61.1214-70.4788 56.4304-72.4964Q51.7395-74.514 45.8656-74.514Q38.9992-74.514 33.3061-71.096Q27.6131-67.6781 23.9807-61.8938Q20.3484-56.1096 19.7594-49.0257Q14.402-47.6028 10.619-43.5997Q6.83594-39.5966 6.83594-33.6288Q6.83594-29.5349 8.8028-26.1597Q10.7697-22.7844 14.4623-20.7424Q18.1549-18.7004 23.3757-18.7004Z"/>
   <path class="multicolor-0:white hierarchical-0:secondary SFSymbolsPreviewFFFFFF" d="M61.084 15.1031Q61.5753 15.1031 61.8038 14.756Q62.0323 14.4089 62.0323 13.9137L61.9209 9.85336L65.3503 11.9499Q65.7898 12.1971 66.2151 12.1658Q66.6405 12.1346 66.8877 11.7409Q67.1356 11.3464 66.9434 10.965Q66.7511 10.5835 66.3017 10.2936L62.8067 8.4137L66.3055 6.48804Q66.7511 6.2439 66.9434 5.86205Q67.1356 5.48019 66.8915 5.04074Q66.6473 4.64706 66.2186 4.61731Q65.7898 4.58755 65.3503 4.8317L61.9209 6.98013L62.0354 2.9129Q62.0392 2.41776 61.8073 2.071Q61.5753 1.72424 61.084 1.72424Q60.5858 1.72424 60.3573 2.071Q60.1288 2.41776 60.1288 2.9129L60.2402 6.98013L56.8077 4.8317Q56.3683 4.58755 55.9444 4.6154Q55.5206 4.64325 55.3192 5.04074Q55.0751 5.48019 55.2635 5.88303Q55.452 6.28586 55.8563 6.48804L59.3964 8.4137L55.8563 10.3394Q55.4062 10.6293 55.2387 10.9863Q55.0713 11.3434 55.2704 11.7409Q55.5145 12.1834 55.9414 12.2131Q56.3683 12.2429 56.8077 11.9949L60.2402 9.89914L60.1326 13.9137Q60.1326 14.4089 60.3592 14.756Q60.5858 15.1031 61.084 15.1031ZM39.8926 15.1031Q40.3839 15.1031 40.6124 14.756Q40.8409 14.4089 40.8409 13.9137L40.7295 9.85336L44.1589 11.9499Q44.5984 12.1971 45.0237 12.1658Q45.4491 12.1346 45.6963 11.7409Q45.9442 11.3464 45.752 10.965Q45.5597 10.5835 45.1103 10.2936L41.6153 8.4137L45.1141 6.48804Q45.5597 6.2439 45.752 5.86205Q45.9442 5.48019 45.7001 5.04074Q45.4559 4.64706 45.0272 4.61731Q44.5984 4.58755 44.1589 4.8317L40.7295 6.98013L40.844 2.9129Q40.8478 2.41776 40.6158 2.071Q40.3839 1.72424 39.8926 1.72424Q39.3944 1.72424 39.1659 2.071Q38.9374 2.41776 38.9374 2.9129L39.0488 6.98013L35.6163 4.8317Q35.1768 4.58755 34.753 4.6154Q34.3292 4.64325 34.1278 5.04074Q33.8837 5.48019 34.0721 5.88303Q34.2606 6.28586 34.6649 6.48804L38.205 8.4137L34.6649 10.3394Q34.2148 10.6293 34.0473 10.9863Q33.8799 11.3434 34.079 11.7409Q34.3231 12.1834 34.75 12.2131Q35.1768 12.2429 35.6163 11.9949L39.0488 9.89914L38.9412 13.9137Q38.9412 14.4089 39.1678 14.756Q39.3944 15.1031 39.8926 15.1031ZM69.3848 0.747681Q69.8761 0.747681 70.1046 0.400543Q70.3331 0.0534058 70.3331-0.441742L70.2217-4.50211L73.6511-2.40555Q74.0906-2.15836 74.5159-2.18964Q74.9413-2.22092 75.1884-2.61459Q75.4364-3.00903 75.2441-3.3905Q75.0519-3.77197 74.6025-4.06189L71.1075-5.94177L74.6063-7.86743Q75.0519-8.11157 75.2441-8.49342Q75.4364-8.87527 75.1923-9.31473Q74.9481-9.7084 74.5193-9.73816Q74.0906-9.76791 73.6511-9.52377L70.2217-7.37534L70.3362-11.4426Q70.34-11.9377 70.108-12.2845Q69.8761-12.6312 69.3848-12.6312Q68.8866-12.6312 68.6581-12.2845Q68.4296-11.9377 68.4296-11.4426L68.541-7.37534L65.1085-9.52377Q64.669-9.76791 64.2452-9.74007Q63.8214-9.71222 63.62-9.31473Q63.3759-8.87527 63.5643-8.47244Q63.7527-8.06961 64.1571-7.86743L67.6971-5.94177L64.1571-4.01611Q63.707-3.7262 63.5395-3.36914Q63.372-3.01208 63.5712-2.61459Q63.8153-2.17209 64.2422-2.14233Q64.669-2.11258 65.1085-2.36053L68.541-4.45633L68.4334-0.441742Q68.4334 0.0534058 68.66 0.400543Q68.8866 0.747681 69.3848 0.747681ZM48.1934 0.747681Q48.6847 0.747681 48.9132 0.400543Q49.1417 0.0534058 49.1417-0.441742L49.0303-4.50211L52.4597-2.40555Q52.8992-2.15836 53.3245-2.18964Q53.7498-2.22092 53.997-2.61459Q54.245-3.00903 54.0527-3.3905Q53.8605-3.77197 53.4111-4.06189L49.9161-5.94177L53.4149-7.86743Q53.8605-8.11157 54.0527-8.49342Q54.245-8.87527 54.0009-9.31473Q53.7567-9.7084 53.3279-9.73816Q52.8992-9.76791 52.4597-9.52377L49.0303-7.37534L49.1447-11.4426Q49.1486-11.9377 48.9166-12.2845Q48.6847-12.6312 48.1934-12.6312Q47.6952-12.6312 47.4667-12.2845Q47.2382-11.9377 47.2382-11.4426L47.3495-7.37534L43.9171-9.52377Q43.4776-9.76791 43.0538-9.74007Q42.63-9.71222 42.4286-9.31473Q42.1844-8.87527 42.3729-8.47244Q42.5613-8.06961 42.9657-7.86743L46.5057-5.94177L42.9657-4.01611Q42.5156-3.7262 42.3481-3.36914Q42.1806-3.01208 42.3798-2.61459Q42.6239-2.17209 43.0508-2.14233Q43.4776-2.11258 43.9171-2.36053L47.3495-4.45633L47.242-0.441742Q47.242 0.0534058 47.4686 0.400543Q47.6952 0.747681 48.1934 0.747681ZM18.7012 15.1031Q19.1925 15.1031 19.421 14.756Q19.6495 14.4089 19.6495 13.9137L19.5381 9.85336L22.9675 11.9499Q23.407 12.1971 23.8323 12.1658Q24.2577 12.1346 24.5049 11.7409Q24.7528 11.3464 24.5605 10.965Q24.3683 10.5835 23.9189 10.2936L20.4239 8.4137L23.9227 6.48804Q24.3683 6.2439 24.5605 5.86205Q24.7528 5.48019 24.5087 5.04074Q24.2645 4.64706 23.8358 4.61731Q23.407 4.58755 22.9675 4.8317L19.5381 6.98013L19.6526 2.9129Q19.6564 2.41776 19.4244 2.071Q19.1925 1.72424 18.7012 1.72424Q18.203 1.72424 17.9745 2.071Q17.746 2.41776 17.746 2.9129L17.8574 6.98013L14.4249 4.8317Q13.9854 4.58755 13.5616 4.6154Q13.1378 4.64325 12.9364 5.04074Q12.6923 5.48019 12.8807 5.88303Q13.0692 6.28586 13.4735 6.48804L17.0135 8.4137L13.4735 10.3394Q13.0234 10.6293 12.8559 10.9863Q12.6884 11.3434 12.8876 11.7409Q13.1317 12.1834 13.5586 12.2131Q13.9854 12.2429 14.4249 11.9949L17.8574 9.89914L17.7498 13.9137Q17.7498 14.4089 17.9764 14.756Q18.203 15.1031 18.7012 15.1031ZM27.002 0.747681Q27.4933 0.747681 27.7218 0.400543Q27.9503 0.0534058 27.9503-0.441742L27.8389-4.50211L31.2683-2.40555Q31.7078-2.15836 32.1331-2.18964Q32.5584-2.22092 32.8056-2.61459Q33.0536-3.00903 32.8613-3.3905Q32.6691-3.77197 32.2197-4.06189L28.7247-5.94177L32.2235-7.86743Q32.6691-8.11157 32.8613-8.49342Q33.0536-8.87527 32.8094-9.31473Q32.5653-9.7084 32.1365-9.73816Q31.7078-9.76791 31.2683-9.52377L27.8389-7.37534L27.9533-11.4426Q27.9572-11.9377 27.7252-12.2845Q27.4933-12.6312 27.002-12.6312Q26.5038-12.6312 26.2753-12.2845Q26.0468-11.9377 26.0468-11.4426L26.1581-7.37534L22.7257-9.52377Q22.2862-9.76791 21.8624-9.74007Q21.4386-9.71222 21.2372-9.31473Q20.993-8.87527 21.1815-8.47244Q21.3699-8.06961 21.7743-7.86743L25.3143-5.94177L21.7743-4.01611Q21.3242-3.7262 21.1567-3.36914Q20.9892-3.01208 21.1884-2.61459Q21.4325-2.17209 21.8594-2.14233Q22.2862-2.11258 22.7257-2.36053L26.1581-4.45633L26.0506-0.441742Q26.0506 0.0534058 26.2772 0.400543Q26.5038 0.747681 27.002 0.747681Z"/>
  </g>
 </g>
</svg>
